<svg id="Calque_1" data-name="Calque 1" xmlns="http://www.w3.org/2000/svg" viewBox="0 0 309 309"><defs><style>.cls-1{fill:#fff;}.cls-2{fill:#007bff;}</style></defs><title>logo-manu</title><circle cx="154.5" cy="154.5" r="154.5"/><path class="cls-1" d="M168.89,65.58V80H100.23v36.14h61.43v14.45H100.23v39.75h65v14.45H85.78V65.58Z"/><path class="cls-1" d="M201.79,116.17q17.57,0,26.6,9t9,25.3q0,16.27-9,25.38t-26.6,8.95H165.33v50.59H150.87V116.17Zm-5.68,54.2q13.41.17,19.61-5.46c4.14-3.75,6.21-7.35,6.21-14.41s-2.07-10.63-6.21-14.33-10.67-5.54-19.61-5.54H165.33v39.75Z"/><path class="cls-2" d="M165.33,248.58v13.15a23.32,23.32,0,0,1-3.38,12.75Q158.56,279.81,151,282v-6.51a9.77,9.77,0,0,0,3.71-2.28,13.19,13.19,0,0,0,2.41-3.25,12.54,12.54,0,0,0,1.24-3.58,13.18,13.18,0,0,0,.19-3.38h-7.68V248.58Z"/></svg>